<svg width="20" height="20" viewBox="0 0 20 20" fill="none" xmlns="http://www.w3.org/2000/svg">
<g clip-path="url(#clip0_1149_5694)">
<path d="M10 4.04668C9.40187 4.04668 8.81718 4.22404 8.31986 4.55634C7.82254 4.88864 7.43492 5.36095 7.20603 5.91355C6.97714 6.46614 6.91725 7.0742 7.03394 7.66083C7.15063 8.24746 7.43865 8.78632 7.86159 9.20925C8.28453 9.63219 8.82338 9.92021 9.41001 10.0369C9.99664 10.1536 10.6047 10.0937 11.1573 9.86481C11.7099 9.63592 12.1822 9.2483 12.5145 8.75098C12.8468 8.25366 13.0242 7.66897 13.0242 7.07084C13.0242 6.26878 12.7055 5.49958 12.1384 4.93243C11.5713 4.36529 10.8021 4.04668 10 4.04668V4.04668ZM10 9.03946C9.61064 9.03946 9.23003 8.924 8.9063 8.70768C8.58256 8.49137 8.33024 8.18391 8.18124 7.8242C8.03224 7.46448 7.99325 7.06866 8.06921 6.68679C8.14517 6.30491 8.33266 5.95414 8.60798 5.67883C8.8833 5.40351 9.23407 5.21602 9.61594 5.14006C9.99781 5.0641 10.3936 5.10308 10.7534 5.25208C11.1131 5.40108 11.4205 5.65341 11.6368 5.97714C11.8532 6.30088 11.9686 6.68149 11.9686 7.07084C11.9672 7.59204 11.7592 8.09141 11.3902 8.45945C11.0211 8.8275 10.5212 9.03418 10 9.03418V9.03946Z" fill="black"/>
<path d="M10 1.55556C8.35608 1.55693 6.77949 2.20878 5.61459 3.36874C4.44969 4.52869 3.79114 6.10249 3.78278 7.74639C3.78278 10.2111 5.16555 12.2747 6.17889 13.7789L6.36361 14.0533C7.37181 15.5146 8.45338 16.9238 9.60417 18.2756L10.0053 18.7453L10.4064 18.2756C11.557 16.9236 12.6386 15.5144 13.6469 14.0533L13.8317 13.7736C14.8397 12.2694 16.2225 10.2111 16.2225 7.74639C16.2141 6.10157 15.5549 4.52698 14.3888 3.36688C13.2228 2.20677 11.6448 1.55554 10 1.55556V1.55556ZM12.9503 13.1667L12.7603 13.4464C11.8525 14.8081 10.6492 16.3333 10 17.0881C9.37722 16.3333 8.1475 14.8081 7.23972 13.4464L7.055 13.1667C6.12083 11.7733 4.83833 9.86806 4.83833 7.72528C4.83833 7.04744 4.97184 6.37624 5.23124 5.75C5.49064 5.12375 5.87084 4.55474 6.35015 4.07543C6.82945 3.59612 7.39847 3.21592 8.02471 2.95652C8.65096 2.69712 9.32216 2.56361 10 2.56361C10.6778 2.56361 11.349 2.69712 11.9753 2.95652C12.6015 3.21592 13.1705 3.59612 13.6498 4.07543C14.1292 4.55474 14.5094 5.12375 14.7688 5.75C15.0282 6.37624 15.1617 7.04744 15.1617 7.72528C15.1617 9.88917 13.8844 11.7944 12.9503 13.1667V13.1667Z" fill="black"/>
</g>
<defs>
<clipPath id="clip0_1149_5694">
<rect width="19" height="19" fill="white" transform="translate(0.5 0.5)"/>
</clipPath>
</defs>
</svg>
