<svg width="24" height="24" viewBox="0 0 24 24" fill="none" xmlns="http://www.w3.org/2000/svg">
<g clip-path="url(#clip0_746_6874)">
<path d="M11 4.10669C10.3074 4.10669 9.63038 4.31206 9.05454 4.69683C8.47869 5.08159 8.02987 5.62848 7.76484 6.26833C7.49981 6.90817 7.43046 7.61224 7.56558 8.2915C7.70069 8.97075 8.03419 9.59469 8.52391 10.0844C9.01362 10.5741 9.63756 10.9076 10.3168 11.0427C10.9961 11.1779 11.7001 11.1085 12.34 10.8435C12.9798 10.5784 13.5267 10.1296 13.9115 9.55378C14.2963 8.97793 14.5016 8.30092 14.5016 7.60836C14.5016 6.67966 14.1327 5.78899 13.476 5.1323C12.8193 4.47561 11.9287 4.10669 11 4.10669ZM11 9.8878C10.5491 9.8878 10.1084 9.75411 9.73357 9.50365C9.35872 9.25318 9.06655 8.89718 8.89403 8.48066C8.7215 8.06415 8.67636 7.60583 8.76431 7.16366C8.85227 6.72149 9.06936 6.31533 9.38815 5.99655C9.70693 5.67776 10.1131 5.46066 10.5553 5.37271C10.9974 5.28476 11.4558 5.3299 11.8723 5.50242C12.2888 5.67495 12.6448 5.96711 12.8952 6.34196C13.1457 6.71682 13.2794 7.15752 13.2794 7.60836C13.2778 8.21184 13.0369 8.79006 12.6096 9.21622C12.1823 9.64238 11.6034 9.88169 11 9.88169V9.8878Z" fill="black"/>
<path d="M11 1.22217C9.09655 1.22376 7.27103 1.97853 5.9222 3.32164C4.57337 4.66474 3.81083 6.48703 3.80115 8.3905C3.80115 11.2444 5.40226 13.6338 6.57559 15.3755L6.78948 15.6933C7.95687 17.3852 9.20922 19.0169 10.5417 20.5822L11.0061 21.1261L11.4706 20.5822C12.8029 19.0168 14.0552 17.3851 15.2228 15.6933L15.4367 15.3694C16.6039 13.6277 18.205 11.2444 18.205 8.3905C18.1953 6.48598 17.432 4.66276 16.0818 3.31948C14.7317 1.9762 12.9046 1.22214 11 1.22217ZM14.4161 14.6666L14.1961 14.9905C13.145 16.5672 11.7517 18.3333 11 19.2072C10.2789 18.3333 8.85504 16.5672 7.80393 14.9905L7.59004 14.6666C6.50837 13.0533 5.02337 10.8472 5.02337 8.36606C5.02337 7.58119 5.17796 6.80401 5.47832 6.07889C5.77867 5.35376 6.21891 4.6949 6.7739 4.13992C7.32888 3.58493 7.98774 3.14469 8.71286 2.84434C9.43799 2.54398 10.2152 2.38939 11 2.38939C11.7849 2.38939 12.5621 2.54398 13.2872 2.84434C14.0123 3.14469 14.6712 3.58493 15.2262 4.13992C15.7812 4.6949 16.2214 5.35376 16.5218 6.07889C16.8221 6.80401 16.9767 7.58119 16.9767 8.36606C16.9767 10.8716 15.4978 13.0777 14.4161 14.6666Z" fill="black"/>
</g>
<defs>
<clipPath id="clip0_746_6874">
<rect width="22" height="22" fill="white"/>
</clipPath>
</defs>
</svg>
