<svg width="300" height="300" viewBox="0 0 300 300" fill="none" xmlns="http://www.w3.org/2000/svg">
<path d="M123.06 223.16C121.2 223.16 119.46 222 118.8 220.15C117.97 217.8 119.21 215.22 121.56 214.39L170.02 197.32C172.37 196.49 174.95 197.73 175.78 200.08C176.61 202.43 175.37 205.01 173.02 205.84L124.56 222.91C124.06 223.08 123.56 223.17 123.06 223.17V223.16Z" fill="#FD3C18"/>
<path d="M124.07 237.29C122.21 237.29 120.47 236.13 119.81 234.28C118.98 231.93 120.22 229.35 122.57 228.52L171.03 211.45C173.38 210.62 175.96 211.86 176.79 214.21C177.62 216.56 176.38 219.14 174.03 219.97L125.57 237.04C125.07 237.21 124.57 237.3 124.07 237.3V237.29Z" fill="#FD3C18"/>
<path d="M129.87 250.15C128.01 250.15 126.27 248.99 125.61 247.14C124.78 244.79 126.02 242.21 128.37 241.38L165.61 228.26C167.96 227.43 170.54 228.67 171.37 231.02C172.2 233.37 170.96 235.95 168.61 236.78L131.37 249.9C130.87 250.07 130.37 250.16 129.87 250.16V250.15Z" fill="#FD3C18"/>
<path d="M140.91 54.6C105.67 57.22 77.56 86.22 75.95 121.52C74.57 151.78 92.31 178.06 118.1 189.35L117.78 204.2C117.73 206.71 120.19 208.49 122.56 207.66L164.97 192.72C168.19 191.84 171.32 190.73 174.35 189.42L174.68 189.3C174.68 189.3 174.66 189.3 174.63 189.3C181.64 186.22 188.06 182.03 193.65 176.95C207.82 164.07 216.72 145.49 216.72 124.83C216.72 84.16 182.24 51.55 140.93 54.61L140.91 54.6ZM173.46 113.3L139.99 147.48C139.5 147.98 138.69 147.99 138.19 147.5L119.56 129.39C119.06 128.9 119.04 128.11 119.52 127.6L125.63 121.13C126.11 120.62 126.92 120.6 127.43 121.08L138.25 131.29C138.75 131.77 139.55 131.75 140.03 131.26L165.45 105.53C165.94 105.03 166.74 105.02 167.24 105.51L173.42 111.47C173.93 111.96 173.94 112.77 173.45 113.28L173.46 113.3Z" fill="#FD3C18"/>
</svg>
