<svg width="24" height="24" viewBox="0 0 24 24" fill="none" xmlns="http://www.w3.org/2000/svg">
<g clip-path="url(#clip0_1043_4808)">
<path d="M18.3706 12.1568C18.345 9.50135 20.7063 8.22651 20.8131 8.16436C19.4844 6.35922 17.4164 6.11192 16.6787 6.08283C14.9198 5.91752 13.245 7.04424 12.3534 7.04424C11.4619 7.04424 10.0833 6.10664 8.62489 6.13309C6.70508 6.15953 4.93765 7.16856 3.94926 8.76343C1.95682 11.973 3.44083 16.7298 5.38058 19.3351C6.33051 20.6086 7.46132 22.0434 8.94818 21.9905C10.3809 21.9376 10.9221 21.1309 12.6511 21.1309C14.3801 21.1309 14.8671 21.9905 16.381 21.9654C17.9206 21.9376 18.8976 20.6641 19.8404 19.3866C20.9285 17.9081 21.3785 16.4773 21.4042 16.4019C21.37 16.3886 18.402 15.332 18.3706 12.1568" fill="#B3B3B3"/>
<path d="M15.5266 4.35947C16.3156 3.47211 16.8483 2.23825 16.7016 1.00842C15.565 1.05079 14.1893 1.71198 13.3732 2.59934C12.6426 3.38359 12.0017 4.63987 12.1754 5.84466C13.443 5.93591 14.7375 5.24553 15.5266 4.35947" fill="#B3B3B3"/>
</g>
<defs>
<clipPath id="clip0_1043_4808">
<rect width="18.4093" height="21" fill="white" transform="translate(3 1)"/>
</clipPath>
</defs>
</svg>
