<svg width="28" height="28" viewBox="0 0 28 28" fill="none" xmlns="http://www.w3.org/2000/svg">
<path d="M15.417 2.42843C17.2308 0.0117815 19.7524 0 19.7524 0C19.7524 0 20.1275 2.27206 18.3256 4.46078C16.4016 6.79785 14.2147 6.41543 14.2147 6.41543C14.2147 6.41543 13.8041 4.57741 15.417 2.42843ZM14.4454 8.007C15.3785 8.007 17.1103 6.71038 19.3645 6.71038C23.2446 6.71038 24.7711 9.50143 24.7711 9.50143C24.7711 9.50143 21.7856 11.0445 21.7856 14.7885C21.7856 19.0122 25.5047 20.4678 25.5047 20.4678C25.5047 20.4678 22.9049 27.8648 19.3934 27.8648C17.7805 27.8648 16.5266 26.7661 14.8273 26.7661C13.0955 26.7661 11.3769 27.9058 10.2576 27.9058C7.05103 27.9059 3 20.889 3 15.2486C3 9.69924 6.42893 6.78813 9.64513 6.78813C11.7359 6.78813 13.3584 8.007 14.4454 8.007Z" fill="white"/>
</svg>
