<svg width="150" height="150" viewBox="0 0 150 150" fill="none" xmlns="http://www.w3.org/2000/svg">
<path d="M57.4253 117.714C56.2703 117.714 55.1228 117.354 54.1553 116.656C52.6778 115.584 51.8153 113.851 51.8528 112.029L52.0403 103.329C32.6228 93.9765 20.8178 74.274 21.8078 52.569C23.0378 25.5465 44.2928 3.65398 71.2403 1.65148C86.3303 0.541483 100.73 5.55898 111.77 15.804C122.66 25.914 128.9 40.224 128.9 55.074C128.9 64.224 126.553 73.254 122.113 81.189C117.485 89.469 110.705 96.294 102.515 100.929C95.8778 104.686 88.6777 107.146 81.7102 109.524C80.1577 110.056 78.6053 110.581 77.0678 111.129L59.2703 117.399C58.6703 117.609 58.0402 117.714 57.4177 117.714H57.4253ZM71.6902 7.61398C47.7577 9.39148 28.8878 28.8315 27.7928 52.839C26.8853 72.7215 38.0678 90.7215 56.2853 98.6865L58.1228 99.489L57.8603 111.556L75.0953 105.489C76.6553 104.941 78.2228 104.401 79.7903 103.869C86.4953 101.574 93.4328 99.204 99.5828 95.724C106.82 91.629 112.813 85.5915 116.908 78.2715C120.853 71.2215 122.93 63.204 122.93 55.074C122.93 41.8815 117.388 29.169 107.713 20.1915C97.9103 11.0865 85.1153 6.62399 71.6978 7.62149L71.6902 7.61398Z" fill="#FD4F18"/>
<path d="M58.4528 128.799C57.1178 128.799 55.8653 127.967 55.3928 126.632C54.8003 124.944 55.6853 123.092 57.3728 122.499L92.1878 110.237C93.8753 109.644 95.7278 110.529 96.3203 112.217C96.9128 113.904 96.0278 115.757 94.3403 116.349L59.5253 128.612C59.1653 128.739 58.8053 128.799 58.4453 128.799H58.4528Z" fill="#FD4F18"/>
<path d="M59.1803 138.947C57.8453 138.947 56.5928 138.114 56.1203 136.779C55.5278 135.092 56.4128 133.239 58.1003 132.647L92.9153 120.384C94.6028 119.792 96.4553 120.677 97.0478 122.364C97.6403 124.052 96.7553 125.904 95.0678 126.497L60.2528 138.759C59.8928 138.887 59.5328 138.947 59.1728 138.947H59.1803Z" fill="#FD4F18"/>
<path d="M63.3427 148.186C62.0077 148.186 60.7552 147.354 60.2827 146.019C59.6902 144.331 60.5752 142.479 62.2627 141.886L89.0077 132.466C90.6952 131.874 92.5477 132.759 93.1402 134.446C93.7327 136.134 92.8477 137.986 91.1602 138.579L64.4152 147.999C64.0552 148.126 63.6952 148.186 63.3352 148.186H63.3427Z" fill="#FD4F18"/>
<circle cx="75.1177" cy="53.499" r="6" fill="#FD4F18"/>
<circle cx="96.1177" cy="53.499" r="6" fill="#FD4F18"/>
<circle cx="54.1177" cy="53.499" r="6" fill="#FD4F18"/>
</svg>
