<svg width="80" height="80" viewBox="0 0 80 80" fill="none" xmlns="http://www.w3.org/2000/svg">
<path d="M32.5925 57.5357C32.12 57.5357 31.6507 57.3884 31.2549 57.1031C30.6506 56.6644 30.2978 55.9558 30.3131 55.2103L30.3898 51.6517C22.4473 47.8262 17.6187 39.7672 18.0236 30.889C18.5267 19.8359 27.2208 10.8811 38.2433 10.062C44.4156 9.60793 50.3058 11.6603 54.8215 15.8508C59.2759 19.9862 61.8283 25.8395 61.8283 31.9137C61.8283 35.6564 60.8681 39.35 59.052 42.5956C57.1592 45.9825 54.3859 48.7741 51.0359 50.67C48.3209 52.207 45.3759 53.2132 42.5259 54.1857C41.8909 54.4035 41.2558 54.6182 40.627 54.8422L33.3471 57.4068C33.1017 57.4927 32.844 57.5357 32.5894 57.5357H32.5925ZM38.4274 12.5008C28.6381 13.2279 20.9196 21.1796 20.4717 30.9995C20.1005 39.1321 24.6745 46.4948 32.1262 49.7528L32.8778 50.081L32.7704 55.017L39.8201 52.5352C40.4582 52.3113 41.0994 52.0904 41.7406 51.8726C44.4831 50.9338 47.3208 49.9644 49.8364 48.541C52.7968 46.866 55.2479 44.3964 56.9229 41.4023C58.5366 38.5186 59.3864 35.2391 59.3864 31.9137C59.3864 26.5175 57.1193 21.3176 53.1619 17.6455C49.1523 13.9212 43.9187 12.0959 38.4304 12.5039L38.4274 12.5008Z" fill="#FD3C18"/>
<path d="M33.0127 62.0699C32.4667 62.0699 31.9543 61.7293 31.7611 61.1833C31.5187 60.493 31.8807 59.7353 32.571 59.4929L46.8116 54.4771C47.5018 54.2348 48.2595 54.5968 48.5019 55.287C48.7443 55.9773 48.3823 56.735 47.692 56.9774L33.4514 61.9932C33.3042 62.0453 33.1569 62.0699 33.0097 62.0699H33.0127Z" fill="#FD3C18"/>
<path d="M33.3103 66.2207C32.7643 66.2207 32.252 65.8802 32.0587 65.3342C31.8163 64.6439 32.1783 63.8862 32.8686 63.6438L47.1092 58.628C47.7994 58.3857 48.5572 58.7477 48.7995 59.4379C49.0419 60.1282 48.6799 60.8859 47.9896 61.1283L33.749 66.1441C33.6018 66.1962 33.4545 66.2207 33.3073 66.2207H33.3103Z" fill="#FD3C18"/>
<path d="M35.013 70C34.4669 70 33.9546 69.6594 33.7613 69.1134C33.519 68.4231 33.881 67.6654 34.5712 67.423L45.5109 63.5699C46.2011 63.3276 46.9589 63.6896 47.2012 64.3798C47.4436 65.0701 47.0816 65.8278 46.3913 66.0701L35.4517 69.9233C35.3044 69.9754 35.1572 70 35.0099 70H35.013Z" fill="#FD3C18"/>
<path d="M33.8125 28.3499H31.95V34.0999H31.8625L27.9124 28.3499H26.2624V37.3999H28.1374V31.6499H28.2124L32.1875 37.3999H33.8125V28.3499ZM35.3375 37.3999H41.425V35.8499H37.2125V33.6499H41.1V32.0999H37.2125V29.8999H41.4125V28.3499H35.3375V37.3999ZM44.8999 37.3999H46.7375L48.475 31.4249H48.55L50.275 37.3999H52.1125L54.7 28.3499H52.65L51.125 34.6874H51.05L49.3875 28.3499H47.625L45.9624 34.6749H45.8874L44.3624 28.3499H42.3124L44.8999 37.3999Z" fill="#FD4F18"/>
</svg>
