<svg width="24" height="24" viewBox="0 0 24 24" fill="none" xmlns="http://www.w3.org/2000/svg">
<path d="M12 16.6795C13.9441 16.6795 15.52 15.0862 15.52 13.1208C15.52 11.1554 13.9441 9.56213 12 9.56213C10.056 9.56213 8.48002 11.1554 8.48002 13.1208C8.48002 15.0862 10.056 16.6795 12 16.6795Z" fill="#3E3E3E"/>
<path d="M8.7 2L6.687 4.22418H3.2C1.99 4.22418 1 5.22505 1 6.44835V19.7934C1 21.0167 1.99 22.0176 3.2 22.0176H20.8C22.01 22.0176 23 21.0167 23 19.7934V6.44835C23 5.22505 22.01 4.22418 20.8 4.22418H17.313L15.3 2H8.7ZM12 18.6813C8.964 18.6813 6.5 16.1902 6.5 13.1209C6.5 10.0515 8.964 7.56044 12 7.56044C15.036 7.56044 17.5 10.0515 17.5 13.1209C17.5 16.1902 15.036 18.6813 12 18.6813Z" fill="#3E3E3E"/>
</svg>
