<svg width="18" height="18" viewBox="0 0 18 18" fill="none" xmlns="http://www.w3.org/2000/svg">
<path fill-rule="evenodd" clip-rule="evenodd" d="M15.5628 16.4547H10.123C9.81255 16.4547 9.56055 16.2027 9.56055 15.8922C9.56055 15.5817 9.81255 15.3297 10.123 15.3297H15.5628C15.8733 15.3297 16.1253 15.5817 16.1253 15.8922C16.1253 16.2027 15.8733 16.4547 15.5628 16.4547Z" fill="black"/>
<mask id="mask0_1219_4768" style="mask-type:alpha" maskUnits="userSpaceOnUse" x="1" y="2" width="14" height="15">
<path fill-rule="evenodd" clip-rule="evenodd" d="M1.5 2.25012H14.3854V16.4548H1.5V2.25012Z" fill="white"/>
</mask>
<g mask="url(#mask0_1219_4768)">
<path fill-rule="evenodd" clip-rule="evenodd" d="M9.83285 3.76261L2.7716 12.5939C2.64335 12.7544 2.5961 12.9614 2.64335 13.1601L3.1541 15.3239L5.43335 15.2954C5.6501 15.2931 5.85035 15.1964 5.9831 15.0314C8.39585 12.0126 12.9956 6.25711 13.1261 6.08836C13.2491 5.88886 13.2971 5.60686 13.2326 5.33536C13.1666 5.05711 12.9934 4.82086 12.7436 4.67011C12.6904 4.63336 11.4266 3.65236 11.3876 3.62161C10.9121 3.24061 10.2184 3.30661 9.83285 3.76261ZM2.70996 16.4549C2.44971 16.4549 2.22321 16.2764 2.16246 16.0221L1.54821 13.4189C1.42146 12.8796 1.54746 12.3231 1.89321 11.8911L8.95821 3.0546C8.96121 3.0516 8.96346 3.04785 8.96646 3.04485C9.74121 2.1186 11.1422 1.9821 12.0872 2.74035C12.1247 2.7696 13.3795 3.7446 13.3795 3.7446C13.8355 4.0161 14.1917 4.50135 14.3267 5.07585C14.461 5.64435 14.3635 6.23085 14.0507 6.7266C14.0275 6.76335 14.0072 6.79485 6.86121 15.7349C6.51696 16.1639 6.00096 16.4136 5.44671 16.4204L2.71746 16.4549H2.70996Z" fill="black"/>
</g>
<path fill-rule="evenodd" clip-rule="evenodd" d="M12.1673 8.76353C12.0473 8.76353 11.9273 8.72528 11.8246 8.64728L7.73557 5.50628C7.48957 5.31728 7.44307 4.96478 7.63207 4.71728C7.82182 4.47128 8.17432 4.42553 8.42107 4.61453L12.5108 7.75478C12.7568 7.94378 12.8033 8.29703 12.6136 8.54378C12.5033 8.68778 12.3361 8.76353 12.1673 8.76353Z" fill="black"/>
</svg>
