<svg width="20" height="20" viewBox="0 0 20 20" fill="none" xmlns="http://www.w3.org/2000/svg">
<g clip-path="url(#clip0_1525_7792)">
<path d="M9.99912 19.9982C15.5215 19.9982 19.9982 15.5215 19.9982 9.99912C19.9982 4.47676 15.5215 0 9.99912 0C4.47676 0 0 4.47676 0 9.99912C0 15.5215 4.47676 19.9982 9.99912 19.9982Z" fill="white"/>
<mask id="mask0_1525_7792" style="mask-type:luminance" maskUnits="userSpaceOnUse" x="0" y="0" width="20" height="20">
<path d="M9.99912 19.9982C15.5215 19.9982 19.9982 15.5215 19.9982 9.99912C19.9982 4.47676 15.5215 0 9.99912 0C4.47676 0 0 4.47676 0 9.99912C0 15.5215 4.47676 19.9982 9.99912 19.9982Z" fill="white"/>
</mask>
<g mask="url(#mask0_1525_7792)">
<path d="M33.6273 12.3062H-4.37958V13.846H33.6273V12.3062Z" fill="#D20037"/>
<path d="M33.6273 18.4619H-4.37958V20H33.6273V18.4619Z" fill="#D20037"/>
<path d="M33.6273 15.3823H-4.37958V16.9221H33.6273V15.3823Z" fill="#D20037"/>
<path d="M33.6273 9.2301H-4.37958V10.7682H33.6273V9.2301Z" fill="#D20037"/>
<path d="M33.6273 3.07788H-4.37958V4.61417H33.6273V3.07788Z" fill="#D20037"/>
<path d="M33.6273 0H-4.37958V1.53805H33.6273V0Z" fill="#D20037"/>
<path d="M33.6273 6.15393H-4.37958V7.69199H33.6273V6.15393Z" fill="#D20037"/>
<path d="M10.8052 0H-4.37958V10.7523H10.8052V0Z" fill="#00387F"/>
<path d="M0.596182 1.35107L0.749634 1.82554H1.2488L0.844881 2.11834L1.0001 2.59281L0.596182 2.30001L0.192266 2.59281L0.345719 2.11834L-0.058197 1.82554H0.440965L0.596182 1.35107Z" fill="white"/>
<path d="M3.11844 1.35107L3.27189 1.82554H3.77105L3.36713 2.11834L3.52235 2.59281L3.11844 2.30001L2.71452 2.59281L2.86974 2.11834L2.46582 1.82554H2.96498L3.11844 1.35107Z" fill="white"/>
<path d="M5.67244 1.35107L5.8259 1.82554H6.32506L5.92114 2.11834L6.07636 2.59281L5.67244 2.30001L5.26853 2.59281L5.42198 2.11834L5.01807 1.82554H5.51723L5.67244 1.35107Z" fill="white"/>
<path d="M8.19119 1.35107L8.34641 1.82554H8.84557L8.44165 2.11834L8.5951 2.59281L8.19119 2.30001L7.78727 2.59281L7.94249 2.11834L7.53857 1.82554H8.03774L8.19119 1.35107Z" fill="white"/>
<path d="M0.596182 3.54175L0.749634 4.01622H1.2488L0.844881 4.30901L1.0001 4.78348L0.596182 4.49069L0.192266 4.78348L0.345719 4.30901L-0.058197 4.01622H0.440965L0.596182 3.54175Z" fill="white"/>
<path d="M3.11844 3.54175L3.27189 4.01622H3.77105L3.36713 4.30901L3.52235 4.78348L3.11844 4.49069L2.71452 4.78348L2.86974 4.30901L2.46582 4.01622H2.96498L3.11844 3.54175Z" fill="white"/>
<path d="M5.67244 3.54175L5.8259 4.01622H6.32506L5.92114 4.30901L6.07636 4.78348L5.67244 4.49069L5.26853 4.78348L5.42198 4.30901L5.01807 4.01622H5.51723L5.67244 3.54175Z" fill="white"/>
<path d="M8.19119 3.54175L8.34641 4.01622H8.84557L8.44165 4.30901L8.5951 4.78348L8.19119 4.49069L7.78727 4.78348L7.94249 4.30901L7.53857 4.01622H8.03774L8.19119 3.54175Z" fill="white"/>
<path d="M0.596182 5.69714L0.749634 6.17161H1.2488L0.844881 6.46441L1.0001 6.94064L0.596182 6.64608L0.192266 6.94064L0.345719 6.46441L-0.058197 6.17161H0.440965L0.596182 5.69714Z" fill="white"/>
<path d="M3.11844 5.69714L3.27189 6.17161H3.77105L3.36713 6.46441L3.52235 6.94064L3.11844 6.64608L2.71452 6.94064L2.86974 6.46441L2.46582 6.17161H2.96498L3.11844 5.69714Z" fill="white"/>
<path d="M5.67244 5.69714L5.8259 6.17161H6.32506L5.92114 6.46441L6.07636 6.94064L5.67244 6.64608L5.26853 6.94064L5.42198 6.46441L5.01807 6.17161H5.51723L5.67244 5.69714Z" fill="white"/>
<path d="M8.19119 5.69714L8.34641 6.17161H8.84557L8.44165 6.46441L8.5951 6.94064L8.19119 6.64608L7.78727 6.94064L7.94249 6.46441L7.53857 6.17161H8.03774L8.19119 5.69714Z" fill="white"/>
<path d="M0.596182 7.87549L0.749634 8.34996H1.2488L0.844881 8.64275L1.0001 9.11722L0.596182 8.82443L0.192266 9.11722L0.345719 8.64275L-0.058197 8.34996H0.440965L0.596182 7.87549Z" fill="white"/>
<path d="M3.11844 7.87549L3.27189 8.34996H3.77105L3.36713 8.64275L3.52235 9.11722L3.11844 8.82443L2.71452 9.11722L2.86974 8.64275L2.46582 8.34996H2.96498L3.11844 7.87549Z" fill="white"/>
<path d="M5.67244 7.87549L5.8259 8.34996H6.32506L5.92114 8.64275L6.07636 9.11722L5.67244 8.82443L5.26853 9.11722L5.42198 8.64275L5.01807 8.34996H5.51723L5.67244 7.87549Z" fill="white"/>
<path d="M8.19119 7.87549L8.34641 8.34996H8.84557L8.44165 8.64275L8.5951 9.11722L8.19119 8.82443L7.78727 9.11722L7.94249 8.64275L7.53857 8.34996H8.03774L8.19119 7.87549Z" fill="white"/>
<path d="M1.84848 2.44116L2.00369 2.91563H2.50286L2.09894 3.21019L2.25239 3.68466L1.84848 3.3901L1.44632 3.68466L1.59978 3.21019L1.19586 2.91563H1.69502L1.84848 2.44116Z" fill="white"/>
<path d="M4.40249 2.44116L4.55595 2.91563H5.05511L4.65119 3.21019L4.80641 3.68466L4.40249 3.3901L3.99858 3.68466L4.15379 3.21019L3.74988 2.91563H4.24904L4.40249 2.44116Z" fill="white"/>
<path d="M6.92299 2.44116L7.07645 2.91563H7.57561L7.17169 3.21019L7.32515 3.68466L6.92299 3.3901L6.51908 3.68466L6.67253 3.21019L6.26862 2.91563H6.76778L6.92299 2.44116Z" fill="white"/>
<path d="M9.45938 2.44116L9.61283 2.91563H10.112L9.70808 3.21019L9.86329 3.68466L9.45938 3.3901L9.05546 3.68466L9.21068 3.21019L8.80676 2.91563H9.30592L9.45938 2.44116Z" fill="white"/>
<path d="M1.84848 0.266357L2.00369 0.740826H2.50286L2.09894 1.03362L2.25239 1.50809L1.84848 1.21529L1.44632 1.50809L1.59978 1.03362L1.19586 0.740826H1.69502L1.84848 0.266357Z" fill="white"/>
<path d="M4.40249 0.266357L4.55595 0.740826H5.05511L4.65119 1.03362L4.80641 1.50809L4.40249 1.21529L3.99858 1.50809L4.15379 1.03362L3.74988 0.740826H4.24904L4.40249 0.266357Z" fill="white"/>
<path d="M6.92299 0.266357L7.07645 0.740826H7.57561L7.17169 1.03362L7.32515 1.50809L6.92299 1.21529L6.51908 1.50809L6.67253 1.03362L6.26862 0.740826H6.76778L6.92299 0.266357Z" fill="white"/>
<path d="M9.45938 0.266357L9.61283 0.740826H10.112L9.70808 1.03362L9.86329 1.50809L9.45938 1.21529L9.05546 1.50809L9.21068 1.03362L8.80676 0.740826H9.30592L9.45938 0.266357Z" fill="white"/>
<path d="M1.84848 4.62476L2.00369 5.09922H2.50286L2.09894 5.39202L2.25239 5.86649L1.84848 5.57369L1.44632 5.86649L1.59978 5.39202L1.19586 5.09922H1.69502L1.84848 4.62476Z" fill="white"/>
<path d="M4.40249 4.62476L4.55595 5.09922H5.05511L4.65119 5.39202L4.80641 5.86649L4.40249 5.57369L3.99858 5.86649L4.15379 5.39202L3.74988 5.09922H4.24904L4.40249 4.62476Z" fill="white"/>
<path d="M6.92299 4.62476L7.07645 5.09922H7.57561L7.17169 5.39202L7.32515 5.86649L6.92299 5.57369L6.51908 5.86649L6.67253 5.39202L6.26862 5.09922H6.76778L6.92299 4.62476Z" fill="white"/>
<path d="M9.45938 4.62476L9.61283 5.09922H10.112L9.70808 5.39202L9.86329 5.86649L9.45938 5.57369L9.05546 5.86649L9.21068 5.39202L8.80676 5.09922H9.30592L9.45938 4.62476Z" fill="white"/>
<path d="M1.84848 6.81018L2.00369 7.28465H2.50286L2.09894 7.57744L2.25239 8.05191L1.84848 7.75912L1.44632 8.05191L1.59978 7.57744L1.19586 7.28465H1.69502L1.84848 6.81018Z" fill="white"/>
<path d="M4.40249 6.81018L4.55595 7.28465H5.05511L4.65119 7.57744L4.80641 8.05191L4.40249 7.75912L3.99858 8.05191L4.15379 7.57744L3.74988 7.28465H4.24904L4.40249 6.81018Z" fill="white"/>
<path d="M6.92299 6.81018L7.07645 7.28465H7.57561L7.17169 7.57744L7.32515 8.05191L6.92299 7.75912L6.51908 8.05191L6.67253 7.57744L6.26862 7.28465H6.76778L6.92299 6.81018Z" fill="white"/>
<path d="M9.45938 6.81018L9.61283 7.28465H10.112L9.70808 7.57744L9.86329 8.05191L9.45938 7.75912L9.05546 8.05191L9.21068 7.57744L8.80676 7.28465H9.30592L9.45938 6.81018Z" fill="white"/>
<path d="M1.84848 8.95142L2.00369 9.42588H2.50286L2.09894 9.71868L2.25239 10.1931L1.84848 9.90035L1.44632 10.1931L1.59978 9.71868L1.19586 9.42588H1.69502L1.84848 8.95142Z" fill="white"/>
<path d="M4.40249 8.95142L4.55595 9.42588H5.05511L4.65119 9.71868L4.80641 10.1931L4.40249 9.90035L3.99858 10.1931L4.15379 9.71868L3.74988 9.42588H4.24904L4.40249 8.95142Z" fill="white"/>
<path d="M6.92299 8.95142L7.07645 9.42588H7.57561L7.17169 9.71868L7.32515 10.1931L6.92299 9.90035L6.51908 10.1931L6.67253 9.71868L6.26862 9.42588H6.76778L6.92299 8.95142Z" fill="white"/>
<path d="M9.45938 8.95142L9.61283 9.42588H10.112L9.70808 9.71868L9.86329 10.1931L9.45938 9.90035L9.05546 10.1931L9.21068 9.71868L8.80676 9.42588H9.30592L9.45938 8.95142Z" fill="white"/>
</g>
</g>
<defs>
<clipPath id="clip0_1525_7792">
<rect width="20" height="20" fill="white"/>
</clipPath>
</defs>
</svg>
