<svg width="20" height="20" viewBox="0 0 20 20" fill="none" xmlns="http://www.w3.org/2000/svg">
<g clip-path="url(#clip0_1525_7784)">
<mask id="mask0_1525_7784" style="mask-type:luminance" maskUnits="userSpaceOnUse" x="0" y="0" width="20" height="20">
<path d="M9.99912 19.9982C15.5215 19.9982 19.9982 15.5215 19.9982 9.99912C19.9982 4.47676 15.5215 0 9.99912 0C4.47676 0 0 4.47676 0 9.99912C0 15.5215 4.47676 19.9982 9.99912 19.9982Z" fill="white"/>
</mask>
<g mask="url(#mask0_1525_7784)">
<path d="M23.1414 -2.15015H-3.14313V22.0971H23.1414V-2.15015Z" fill="#E50A11"/>
<path d="M16.6769 -1.67041H3.5047V21.6491H16.6769V-1.67041Z" fill="white"/>
<path d="M10.0908 4.58765L9.19126 6.26328C9.08896 6.44495 8.90729 6.42908 8.72385 6.32678L8.073 5.98989L8.55805 8.56507C8.66035 9.03601 8.33228 9.03601 8.17177 8.83141L7.03587 7.55969L6.85243 8.20525C6.83127 8.28991 6.73779 8.37987 6.59668 8.35694L5.16093 8.05532L5.53838 9.42582C5.61952 9.73096 5.68125 9.85795 5.45725 9.93732L4.94574 10.1772L7.41686 12.1844C7.51387 12.2603 7.56325 12.3979 7.52974 12.5213L7.31279 13.2321C8.16295 13.1334 8.92669 12.987 9.77862 12.8953C9.85446 12.8864 9.97969 13.0117 9.97969 13.0981L9.86681 15.6997H10.2813L10.216 13.1052C10.216 13.0187 10.3289 12.8882 10.4048 12.897C11.2567 12.987 12.0187 13.1351 12.8706 13.2339L12.6537 12.5231C12.6184 12.3996 12.6678 12.262 12.7665 12.1862L15.2377 10.179L14.7261 9.93909C14.5004 9.85795 14.5639 9.73272 14.645 9.42758L15.0225 8.05709L13.5867 8.3587C13.4456 8.37987 13.3521 8.29168 13.331 8.20701L13.1475 7.56145L12.0116 8.83317C11.8493 9.03601 11.523 9.03601 11.6253 8.56683L12.1104 5.99165L11.4595 6.32854C11.2761 6.43084 11.0944 6.44672 10.9921 6.26504L10.0926 4.58941L10.0908 4.58765Z" fill="#E50A11"/>
</g>
</g>
<defs>
<clipPath id="clip0_1525_7784">
<rect width="20" height="20" fill="white"/>
</clipPath>
</defs>
</svg>
