<svg width="20" height="20" viewBox="0 0 20 20" fill="none" xmlns="http://www.w3.org/2000/svg">
<g clip-path="url(#clip0_1525_7730)">
<path d="M9.99912 19.9982C15.5215 19.9982 19.9982 15.5215 19.9982 9.99912C19.9982 4.47676 15.5215 0 9.99912 0C4.47676 0 0 4.47676 0 9.99912C0 15.5215 4.47676 19.9982 9.99912 19.9982Z" fill="white"/>
<path d="M14.4172 5.04876L13.9653 5.35034L15.8199 8.12899L16.2717 7.82741L14.4172 5.04876Z" fill="#231815" stroke="#231815" stroke-width="0.0440956"/>
<path d="M16.1287 6.10284L15.6769 6.40442L16.516 7.66171L16.9679 7.36012L16.1287 6.10284Z" fill="#231815" stroke="#231815" stroke-width="0.0440956"/>
<path d="M15.1135 4.58209L14.6616 4.88367L15.5008 6.14095L15.9526 5.83937L15.1135 4.58209Z" fill="#231815" stroke="#231815" stroke-width="0.0440956"/>
<path d="M14.7316 7.03533L14.2798 7.33691L15.1189 8.5942L15.5708 8.29262L14.7316 7.03533Z" fill="#231815" stroke="#231815" stroke-width="0.0440956"/>
<path d="M13.7169 5.51202L13.265 5.8136L14.1042 7.07089L14.556 6.7693L13.7169 5.51202Z" fill="#231815" stroke="#231815" stroke-width="0.0440956"/>
<path d="M4.87909 11.4123L4.42712 11.7137L6.28068 14.493L6.73265 14.1916L4.87909 11.4123Z" fill="#231815" stroke="#231815" stroke-width="0.0440956"/>
<path d="M3.48416 12.342L3.03235 12.6437L4.88736 15.422L5.33917 15.1203L3.48416 12.342Z" fill="#231815" stroke="#231815" stroke-width="0.0440956"/>
<path d="M6.27775 5.50631L4.42273 8.28674L4.87758 8.5902L6.7326 5.80977L6.27775 5.50631Z" fill="#231815" stroke="#231815" stroke-width="0.0440956"/>
<path d="M4.88542 4.57589L3.03137 7.35486L3.48329 7.65636L5.33733 4.87739L4.88542 4.57589Z" fill="#231815" stroke="#231815" stroke-width="0.0440956"/>
<path d="M5.57658 5.03906L3.72302 7.81836L4.17499 8.11978L6.02855 5.34049L5.57658 5.03906Z" fill="#231815" stroke="#231815" stroke-width="0.0440956"/>
<path d="M4.18233 11.8779L3.73047 12.1794L4.57059 13.4382L5.02245 13.1366L4.18233 11.8779Z" fill="#231815" stroke="#231815" stroke-width="0.0440956"/>
<path d="M5.19759 13.3969L4.74573 13.6985L5.58487 14.9558L6.03673 14.6542L5.19759 13.3969Z" fill="#231815" stroke="#231815" stroke-width="0.0440956"/>
<path d="M16.5154 12.3364L15.6736 13.5983L16.1284 13.9017L16.9703 12.6399L16.5154 12.3364Z" fill="#231815" stroke="#231815" stroke-width="0.0440956"/>
<path d="M15.5006 13.8587L14.6589 15.1165L15.1134 15.4206L15.955 14.1628L15.5006 13.8587Z" fill="#231815" stroke="#231815" stroke-width="0.0440956"/>
<path d="M14.1036 12.9279L13.2656 14.1838L13.7175 14.4853L14.5555 13.2294L14.1036 12.9279Z" fill="#231815" stroke="#231815" stroke-width="0.0440956"/>
<path d="M15.1198 11.405L14.278 12.6669L14.7299 12.9684L15.5717 11.7065L15.1198 11.405Z" fill="#231815" stroke="#231815" stroke-width="0.0440956"/>
<path d="M14.7984 13.3922L13.9607 14.6483L14.4127 14.9497L15.2504 13.6936L14.7984 13.3922Z" fill="#231815" stroke="#231815" stroke-width="0.0440956"/>
<path d="M15.8138 11.8657L14.9719 13.1276L15.4238 13.4291L16.2657 12.1672L15.8138 11.8657Z" fill="#231815" stroke="#231815" stroke-width="0.0440956"/>
<path d="M7.24927 9.96738C7.24927 9.96738 7.57558 10.5089 8.23172 10.6606C8.23172 10.6606 8.62682 10.7911 9.10658 10.6464C9.10658 10.6464 9.50873 10.5459 9.82622 10.2161C9.82622 10.2161 9.86503 10.1826 9.99731 10.0009C9.99731 10.0009 10.1084 9.83862 10.216 9.74161C10.216 9.74161 10.4877 9.46645 10.8651 9.36238C10.8651 9.36238 11.2196 9.23363 11.6412 9.31123C11.6412 9.31123 12.0645 9.36415 12.4085 9.66047C12.4085 9.66047 12.7665 9.92857 12.9217 10.3748C12.9217 10.3748 13.0769 10.7611 13.0099 11.1562C13.0099 11.1562 12.9852 11.4825 12.8071 11.7735C12.8071 11.7735 12.7683 11.8423 12.7365 11.8899C13.1069 11.3537 13.3239 10.7029 13.3239 10.0027C13.3239 8.16475 11.8335 6.67432 9.99555 6.67432C8.85083 6.67432 7.84016 7.25285 7.24222 8.133C7.17519 8.23706 6.95295 8.61276 6.96883 9.1031C6.96883 9.1031 6.96354 9.55111 7.24575 9.96914L7.24927 9.96738Z" fill="#E50012"/>
<path d="M12.7137 11.9253C12.7225 11.9129 12.7313 11.9006 12.7401 11.8882C12.7719 11.8388 12.8107 11.7718 12.8107 11.7718C12.9888 11.4808 13.0135 11.1545 13.0135 11.1545C13.0788 10.7576 12.9253 10.3731 12.9253 10.3731C12.7701 9.92685 12.412 9.65875 12.412 9.65875C12.0681 9.36419 11.6448 9.30951 11.6448 9.30951C11.2232 9.23367 10.8687 9.36067 10.8687 9.36067C10.4912 9.4665 10.2196 9.73989 10.2196 9.73989C10.112 9.8369 10.0009 9.99917 10.0009 9.99917C9.8686 10.1808 9.8298 10.2144 9.8298 10.2144C9.51231 10.5442 9.11016 10.6447 9.11016 10.6447C8.62863 10.7894 8.2353 10.6588 8.2353 10.6588C7.57739 10.5072 7.25285 9.96566 7.25285 9.96566C6.97064 9.54587 6.97593 9.09962 6.97593 9.09962C6.96006 8.60928 7.18053 8.23358 7.24932 8.12952C6.88598 8.66219 6.67432 9.30599 6.67432 9.99917C6.67432 11.8371 8.16475 13.3275 10.0027 13.3275C11.1192 13.3275 12.1051 12.7772 12.7084 11.9358V11.9323C12.7084 11.9323 12.7136 11.9288 12.7154 11.9253H12.7137Z" fill="#1D2087"/>
</g>
<defs>
<clipPath id="clip0_1525_7730">
<rect width="20" height="20" fill="white"/>
</clipPath>
</defs>
</svg>
