<svg width="24" height="24" viewBox="0 0 24 24" fill="none" xmlns="http://www.w3.org/2000/svg">
<path d="M20.912 9.78631H20.1764V9.75H11.9579V13.25H17.1187C16.3658 15.2874 14.3427 16.75 11.9579 16.75C8.93218 16.75 6.47897 14.3993 6.47897 11.5C6.47897 8.60069 8.93218 6.25 11.9579 6.25C13.3546 6.25 14.6253 6.75487 15.5928 7.57956L18.1757 5.10462C16.5448 3.64819 14.3632 2.75 11.9579 2.75C6.91501 2.75 2.82632 6.66781 2.82632 11.5C2.82632 16.3322 6.91501 20.25 11.9579 20.25C17.0009 20.25 21.0896 16.3322 21.0896 11.5C21.0896 10.9133 21.0266 10.3406 20.912 9.78631Z" fill="#FFC107"/>
<path d="M3.87921 7.42731L6.8794 9.53562C7.69121 7.60975 9.65724 6.25 11.958 6.25C13.3546 6.25 14.6253 6.75487 15.5928 7.57956L18.1757 5.10462C16.5448 3.64819 14.3632 2.75 11.958 2.75C8.4505 2.75 5.40876 4.64744 3.87921 7.42731Z" fill="#FF3D00"/>
<path d="M11.9579 20.2501C14.3166 20.2501 16.4598 19.3851 18.0802 17.9786L15.254 15.6869C14.3064 16.3775 13.1485 16.751 11.9579 16.7501C9.58281 16.7501 7.56609 15.2989 6.80634 13.2737L3.82852 15.4721C5.3398 18.3058 8.40894 20.2501 11.9579 20.2501Z" fill="#4CAF50"/>
<path d="M20.912 9.78631H20.1764V9.75H11.9579V13.25H17.1187C16.7585 14.2197 16.1098 15.067 15.2526 15.6873L15.254 15.6864L18.0802 17.9781C17.8803 18.1522 21.0896 15.875 21.0896 11.5C21.0896 10.9133 21.0266 10.3406 20.912 9.78631Z" fill="#1976D2"/>
</svg>
