<svg width="20" height="20" viewBox="0 0 20 20" fill="none" xmlns="http://www.w3.org/2000/svg">
<g clip-path="url(#clip0_1187_6800)">
<path d="M9.99999 3.73334C9.37038 3.73334 8.75492 3.92004 8.23142 4.26983C7.70792 4.61962 7.29991 5.11678 7.05897 5.69846C6.81803 6.28014 6.75499 6.9202 6.87782 7.53771C7.00065 8.15521 7.30383 8.72243 7.74903 9.16763C8.19423 9.61283 8.76144 9.91601 9.37895 10.0388C9.99645 10.1617 10.6365 10.0986 11.2182 9.85769C11.7999 9.61675 12.297 9.20873 12.6468 8.68524C12.9966 8.16174 13.1833 7.54627 13.1833 6.91667C13.1833 6.0724 12.8479 5.26271 12.2509 4.66571C11.654 4.06872 10.8443 3.73334 9.99999 3.73334ZM9.99999 8.98889C9.59014 8.98889 9.1895 8.86736 8.84872 8.63966C8.50795 8.41196 8.24234 8.08833 8.0855 7.70968C7.92866 7.33103 7.88762 6.91437 7.96758 6.5124C8.04754 6.11043 8.2449 5.74119 8.5347 5.45139C8.82451 5.16158 9.19374 4.96422 9.59571 4.88427C9.99769 4.80431 10.4143 4.84535 10.793 5.00219C11.1716 5.15903 11.4953 5.42463 11.723 5.76541C11.9507 6.10618 12.0722 6.50682 12.0722 6.91667C12.0707 7.4653 11.8518 7.99095 11.4633 8.37836C11.0748 8.76578 10.5486 8.98334 9.99999 8.98334V8.98889Z" fill="black"/>
<path d="M10 1.11111C8.26957 1.11256 6.61 1.79872 5.38379 3.01972C4.15758 4.24073 3.46437 5.89736 3.45557 7.62778C3.45557 10.2222 4.91112 12.3944 5.97779 13.9778L6.17223 14.2667C7.2335 15.8048 8.372 17.2882 9.58334 18.7111L10.0056 19.2056L10.4278 18.7111C11.639 17.2881 12.7775 15.8047 13.8389 14.2667L14.0333 13.9722C15.0945 12.3889 16.55 10.2222 16.55 7.62778C16.5412 5.8964 15.8472 4.23893 14.6198 3.01777C13.3924 1.7966 11.7314 1.11109 10 1.11111ZM13.1056 13.3333L12.9056 13.6278C11.95 15.0611 10.6833 16.6667 10 17.4611C9.34446 16.6667 8.05001 15.0611 7.09446 13.6278L6.90001 13.3333C5.91668 11.8667 4.56668 9.86111 4.56668 7.60556C4.56668 6.89204 4.70722 6.18551 4.98027 5.52631C5.25332 4.86711 5.65353 4.26814 6.15806 3.76361C6.6626 3.25908 7.26156 2.85886 7.92076 2.58581C8.57997 2.31276 9.2865 2.17223 10 2.17223C10.7135 2.17223 11.4201 2.31276 12.0793 2.58581C12.7385 2.85886 13.3374 3.25908 13.842 3.76361C14.3465 4.26814 14.7467 4.86711 15.0198 5.52631C15.2928 6.18551 15.4333 6.89204 15.4333 7.60556C15.4333 9.88334 14.0889 11.8889 13.1056 13.3333Z" fill="black"/>
</g>
<defs>
<clipPath id="clip0_1187_6800">
<rect width="20" height="20" fill="white"/>
</clipPath>
</defs>
</svg>
