<svg width="210" height="139" viewBox="0 0 210 139" fill="none" xmlns="http://www.w3.org/2000/svg">
<g clip-path="url(#clip0_1838_7833)">
<path d="M8.79609 116.176C8.79609 120.099 11.222 120.786 12.3195 120.786C14.3782 120.786 15.6159 119.096 15.6159 117.545C15.6159 115.765 14.1967 115.218 8.97762 113.03C6.59707 112.072 0.693145 109.699 0.693145 103.358C0.693145 96.5597 6.8735 92.9531 12.5505 92.9531C17.2208 92.9531 23.8096 95.326 23.9499 103.448H15.389C15.2075 102.309 14.9311 100.162 12.2782 100.162C10.7682 100.162 9.30356 101.211 9.30356 102.811C9.30356 104.41 10.2195 104.772 16.3091 107.511C22.6256 110.34 24.2305 113.26 24.2305 117.184C24.2305 122.567 21.392 127.999 12.4185 127.999C3.44501 127.999 -0.0371108 122.793 0.189805 116.176H8.79609Z" fill="#FD3C18"/>
<path d="M58.734 114.626C58.734 108.465 63.1733 101.211 72.4232 101.211C81.6731 101.211 86.1083 108.465 86.1083 114.671C86.1083 120.877 81.669 128.131 72.4232 128.131C63.1774 128.131 58.734 120.877 58.734 114.671V114.626ZM66.3336 114.716C66.3336 118.368 69.1267 121.058 72.4232 121.058C75.7197 121.058 78.5128 118.364 78.5128 114.671C78.5128 110.978 75.7197 108.284 72.4232 108.284C69.1267 108.284 66.3336 110.978 66.3336 114.671V114.716Z" fill="#FD3C18"/>
<path d="M28.0715 114.626C28.0715 108.465 32.5108 101.211 41.7607 101.211C51.0106 101.211 55.4458 108.465 55.4458 114.671C55.4458 120.877 51.0065 128.131 41.7607 128.131C32.515 128.131 28.0715 120.877 28.0715 114.671V114.626ZM35.6711 114.716C35.6711 118.368 38.4643 121.058 41.7607 121.058C45.0572 121.058 47.8503 118.364 47.8503 114.671C47.8503 110.978 45.0572 108.284 41.7607 108.284C38.4643 108.284 35.6711 110.978 35.6711 114.671V114.716Z" fill="#FD3C18"/>
<path d="M91.9173 107.778H88.1628V102.029H91.9173V93.5864H99.5169V102.029H103.181V107.778H99.5169V127.354H91.9173V107.778Z" fill="#FD3C18"/>
<path d="M106.428 102.029H113.569V104.859C114.304 103.489 115.628 101.162 120.022 101.162V108.782H119.745C115.855 108.782 114.023 110.197 114.023 113.754V127.35H106.423V102.025L106.428 102.029Z" fill="#FD3C18"/>
<path d="M123.545 93.5906H131.145V99.3397H123.545V93.5906ZM123.545 102.033H131.145V127.358H123.545V102.033Z" fill="#FD3C18"/>
<path d="M168.359 93.5905H175.959V104.357C177.332 102.074 179.894 101.162 182.597 101.162C186.487 101.162 188.777 102.531 190.151 104.768C191.525 106.96 191.892 109.97 191.892 113.211V127.358H184.293V113.577C184.293 112.162 184.111 110.838 183.513 109.88C182.873 108.922 181.867 108.284 180.216 108.284C178.112 108.284 177.011 109.242 176.507 110.336C175.959 111.43 175.959 112.664 175.959 113.301V127.354H168.359V93.5864V93.5905Z" fill="#FD3C18"/>
<path d="M198.794 107.778H195.04V102.029H198.794V93.5864H206.394V102.029H210.058V107.778H206.394V127.354H198.794V107.778Z" fill="#FD3C18"/>
<path d="M35.6835 113.667H28.0715V135.883H35.6835V113.667Z" fill="#FD3C18"/>
<path d="M135.634 114.601C135.634 108.441 140.073 101.186 149.323 101.186C158.573 101.186 163.008 108.441 163.008 114.646C163.008 120.852 158.569 128.106 149.323 128.106C140.077 128.106 135.634 120.852 135.634 114.646V114.601ZM143.233 114.691C143.233 118.343 146.026 121.033 149.323 121.033C152.619 121.033 155.412 118.339 155.412 114.646C155.412 110.953 152.619 108.26 149.323 108.26C146.026 108.26 143.233 110.953 143.233 114.646V114.691Z" fill="#FD3C18"/>
<path d="M144.875 129.673C146.022 130.775 147.557 131.425 149.216 131.425C150.874 131.425 152.401 130.775 153.543 129.673L162.641 129.656C160.891 134.53 156.469 138.807 149.216 138.807C141.963 138.807 137.556 134.546 135.799 129.681L144.875 129.669V129.673Z" fill="#FD3C18"/>
<path d="M162.975 99.7676H155.371V115.773H162.975V99.7676Z" fill="#FD3C18"/>
<path d="M102.71 0.275651C88.2082 1.34899 76.6355 13.2462 75.9713 27.7302C75.4019 40.1456 82.7045 50.9284 93.32 55.5549L93.188 61.6454C93.1674 62.6735 94.1823 63.4055 95.156 63.0642L112.612 56.9367C113.94 56.5748 115.228 56.1224 116.47 55.5837L116.606 55.5343C116.606 55.5343 116.597 55.5343 116.585 55.5343C119.473 54.2677 122.114 52.5528 124.416 50.4678C130.249 45.1833 133.909 37.5589 133.909 29.0832C133.909 12.3991 119.721 -0.982751 102.714 0.275651H102.71Z" fill="#FD3C18"/>
<path d="M95.3623 69.4259C94.5949 69.4259 93.8811 68.9489 93.6088 68.1881C93.2664 67.2217 93.778 66.1648 94.7434 65.8275L114.687 58.8241C115.657 58.4827 116.717 58.9886 117.055 59.955C117.398 60.9214 116.886 61.9783 115.921 62.3155L95.977 69.319C95.7707 69.3889 95.5644 69.4259 95.3582 69.4259H95.3623Z" fill="#FD3C18"/>
<path d="M95.7749 75.2204C95.0075 75.2204 94.2937 74.7434 94.0214 73.9826C93.679 73.0161 94.1906 71.9592 95.156 71.622L115.1 64.6186C116.069 64.2772 117.13 64.7872 117.468 65.7495C117.81 66.7159 117.299 67.7728 116.333 68.11L96.3896 75.1135C96.1833 75.1834 95.977 75.2204 95.7707 75.2204H95.7749Z" fill="#FD3C18"/>
<path d="M98.1637 80.4965C97.3963 80.4965 96.6825 80.0195 96.4102 79.2587C96.0678 78.2923 96.5794 77.2354 97.5448 76.8982L112.872 71.515C113.841 71.1737 114.902 71.6795 115.24 72.6459C115.578 73.6123 115.071 74.6692 114.106 75.0064L98.7784 80.3896C98.5721 80.4595 98.3658 80.4965 98.1595 80.4965H98.1637Z" fill="#FD3C18"/>
<path d="M102.351 31.7273L112.814 21.1707C113.016 20.9651 113.346 20.961 113.553 21.1625L116.094 23.6094C116.305 23.8109 116.309 24.144 116.106 24.3538L102.331 38.3771C102.128 38.5828 101.798 38.5869 101.588 38.3854L93.9183 30.9583C93.712 30.7568 93.7037 30.4319 93.9018 30.2222L96.4184 27.5697C96.6165 27.3599 96.9507 27.3517 97.1611 27.5491L101.617 31.7397C101.823 31.933 102.149 31.9288 102.351 31.7273Z" fill="white"/>
</g>
<defs>
<clipPath id="clip0_1838_7833">
<rect width="210" height="139" fill="white"/>
</clipPath>
</defs>
</svg>
