<svg width="24" height="24" viewBox="0 0 24 24" fill="none" xmlns="http://www.w3.org/2000/svg">
<path d="M12.1277 2.01705C7.00231 1.6943 2.69428 5.99882 3.01704 11.1278C3.3012 15.6112 7.02336 19.158 11.577 19.158L11.5559 21.7014C11.5559 21.961 11.8646 22.0978 12.0541 21.9189L17.2883 16.9759C19.0458 15.4042 20.1544 13.1204 20.1544 10.577C20.1544 6.02338 16.6077 2.2977 12.1242 2.01705H12.1277ZM11.6822 13.0081C10.3772 13.0081 9.32121 11.9522 9.32121 10.6471C9.32121 9.3421 10.3772 8.28614 11.6822 8.28614C12.9872 8.28614 14.0432 9.3421 14.0432 10.6471C14.0432 11.9522 12.9872 13.0081 11.6822 13.0081Z" fill="black"/>
</svg>
