<svg width="24" height="24" viewBox="0 0 24 24" fill="none" xmlns="http://www.w3.org/2000/svg">
<path d="M18.544 11.1722H12.9093V5.53757C12.9093 5.07421 12.5335 4.69836 12.0701 4.69836C11.6068 4.69836 11.2309 5.07421 11.2309 5.53757V11.1722H5.59628C5.13292 11.1722 4.75708 11.5481 4.75708 12.0114C4.75708 12.4748 5.13292 12.8506 5.59628 12.8506H11.2309V18.4853C11.2309 18.9486 11.6068 19.3245 12.0701 19.3245C12.5335 19.3245 12.9093 18.9486 12.9093 18.4853V12.8506H18.544C19.0073 12.8506 19.3832 12.4748 19.3832 12.0114C19.3832 11.5481 19.0073 11.1722 18.544 11.1722Z" fill="black"/>
</svg>
