<svg width="220" height="48" viewBox="0 0 220 48" fill="none" xmlns="http://www.w3.org/2000/svg">
<path d="M13.6166 24.2229C13.6166 28.1461 16.0426 28.8329 17.14 28.8329C19.1988 28.8329 20.4365 27.1427 20.4365 25.5923C20.4365 23.8116 19.0172 23.2647 13.7982 21.0769C11.4176 20.1187 5.5137 17.7458 5.5137 11.4044C5.5137 4.6066 11.6941 1 17.3711 1C22.0414 1 28.6302 3.37287 28.7705 11.4949H20.2096C20.028 10.3558 19.7516 8.20908 17.0988 8.20908C15.5888 8.20908 14.1241 9.25775 14.1241 10.8575C14.1241 12.4572 15.04 12.8191 21.1296 15.558C27.4461 18.3873 29.051 21.3072 29.051 25.2304C29.051 30.6136 26.2125 36.0461 17.239 36.0461C8.26557 36.0461 4.78345 30.8398 5.01036 24.2229H13.6166Z" fill="#FD3C18"/>
<path d="M63.5544 22.6726C63.5544 16.5121 67.9937 9.25781 77.2436 9.25781C86.4935 9.25781 90.9287 16.5121 90.9287 22.7178C90.9287 28.9234 86.4894 36.1778 77.2436 36.1778C67.9979 36.1778 63.5544 28.9234 63.5544 22.7178V22.6726ZM71.154 22.763C71.154 26.4149 73.9472 29.1044 77.2436 29.1044C80.5401 29.1044 83.3332 26.4107 83.3332 22.7178C83.3332 19.0248 80.5401 16.3312 77.2436 16.3312C73.9472 16.3312 71.154 19.0248 71.154 22.7178V22.763Z" fill="#FD3C18"/>
<path d="M32.8921 22.6726C32.8921 16.5121 37.3314 9.25781 46.5813 9.25781C55.8312 9.25781 60.2664 16.5121 60.2664 22.7178C60.2664 28.9234 55.8271 36.1778 46.5813 36.1778C37.3355 36.1778 32.8921 28.9234 32.8921 22.7178V22.6726ZM40.4917 22.763C40.4917 26.4149 43.2848 29.1044 46.5813 29.1044C49.8777 29.1044 52.6709 26.4107 52.6709 22.7178C52.6709 19.0248 49.8777 16.3312 46.5813 16.3312C43.2848 16.3312 40.4917 19.0248 40.4917 22.7178V22.763Z" fill="#FD3C18"/>
<path d="M96.7378 15.8253H92.9834V10.0761H96.7378V1.6333H104.337V10.0761H108.001V15.8253H104.337V35.4004H96.7378V15.8253Z" fill="#FD3C18"/>
<path d="M111.248 10.0762H118.39V12.9056C119.124 11.5361 120.448 9.2085 124.842 9.2085V16.8288H124.566C120.675 16.8288 118.843 18.2435 118.843 21.8007V35.3964H111.244V10.0721L111.248 10.0762Z" fill="#FD3C18"/>
<path d="M128.366 1.63745H135.965V7.38662H128.366V1.63745ZM128.366 10.0803H135.965V35.4046H128.366V10.0803Z" fill="#FD3C18"/>
<path d="M173.179 1.63741H180.779V12.4037C182.153 10.1213 184.715 9.20839 187.417 9.20839C191.308 9.20839 193.598 10.5778 194.972 12.815C196.345 15.0069 196.713 18.0172 196.713 21.2578V35.4045H189.113V21.6238C189.113 20.2091 188.931 18.8849 188.333 17.9267C187.694 16.9685 186.687 16.3311 185.037 16.3311C182.933 16.3311 181.831 17.2893 181.328 18.3832C180.779 19.4771 180.779 20.7108 180.779 21.3483V35.4004H173.179V1.6333V1.63741Z" fill="#FD3C18"/>
<path d="M203.615 15.8253H199.861V10.0761H203.615V1.6333H211.215V10.0761H214.878V15.8253H211.215V35.4004H203.615V15.8253Z" fill="#FD3C18"/>
<path d="M40.5041 21.7144H32.8921V43.9297H40.5041V21.7144Z" fill="#FD3C18"/>
<path d="M140.454 22.6479C140.454 16.4875 144.893 9.23315 154.143 9.23315C163.393 9.23315 167.828 16.4875 167.828 22.6931C167.828 28.8988 163.389 36.1531 154.143 36.1531C144.898 36.1531 140.454 28.8988 140.454 22.6931V22.6479ZM148.054 22.7384C148.054 26.3902 150.847 29.0797 154.143 29.0797C157.44 29.0797 160.233 26.3861 160.233 22.6931C160.233 19.0002 157.44 16.3065 154.143 16.3065C150.847 16.3065 148.054 19.0002 148.054 22.6931V22.7384Z" fill="#FD3C18"/>
<path d="M149.696 37.7198C150.843 38.822 152.377 39.4717 154.036 39.4717C155.695 39.4717 157.221 38.822 158.364 37.7198L167.461 37.7034C165.712 42.5766 161.289 46.8535 154.036 46.8535C146.783 46.8535 142.377 42.593 140.619 37.728L149.696 37.7157V37.7198Z" fill="#FD3C18"/>
<path d="M167.795 7.81445H160.192V23.82H167.795V7.81445Z" fill="#FD3C18"/>
</svg>
