<svg width="80" height="80" viewBox="0 0 80 80" fill="none" xmlns="http://www.w3.org/2000/svg">
<g clip-path="url(#clip0_1567_6967)">
<path d="M39.567 11.75C39.7594 11.4167 40.2406 11.4167 40.433 11.75L68.1458 59.75C68.3383 60.0833 68.0977 60.5 67.7128 60.5H12.2872C11.9023 60.5 11.6617 60.0833 11.8542 59.75L39.567 11.75Z" stroke="#FD4F18" stroke-width="3"/>
<path d="M41.3969 29.7891H37.9692L38.2328 44.877H41.1332L41.3969 29.7891ZM37.6176 49.125C37.6029 50.2676 38.5551 51.1904 39.6977 51.2051C40.8256 51.1904 41.7631 50.2676 41.7778 49.125C41.7631 47.9824 40.8256 47.0449 39.6977 47.0449C38.5551 47.0449 37.6029 47.9824 37.6176 49.125Z" fill="#FD4F18"/>
</g>
<defs>
<clipPath id="clip0_1567_6967">
<rect width="80" height="80" fill="white"/>
</clipPath>
</defs>
</svg>
